<?xml version="1.0" standalone="no"?>
 <!DOCTYPE svg PUBLIC "-//W3C//DTD SVG 1.1//EN" 
 "http://www.w3.org/Graphics/SVG/1.1/DTD/svg11.dtd"> 
<svg
  xmlns:svg="http://www.w3.org/2000/svg"
  xmlns="http://www.w3.org/2000/svg"
  xmlns:xlink="http://www.w3.org/1999/xlink"
  version="1.1"
  width="4.010660cm" height="8.153400cm" viewBox="0 0 15790 32100">
<title>SVG Picture created as IR-Controller-brd.svg date 2021/04/03 17:15:47 </title>
  <desc>Picture generated by PCBNEW </desc>
<g style="fill:#000000; fill-opacity:1;stroke:#000000; stroke-opacity:1;
stroke-linecap:round; stroke-linejoin:round;"
 transform="translate(0 0) scale(1 1)">
</g>
<g style="fill:#000000; fill-opacity:0.0; 
stroke:#000000; stroke-width:-0.000393701; stroke-opacity:1; 
stroke-linecap:round; stroke-linejoin:round;">
<g >
</g>
<g >
</g>
<g >
</g>
<g >
</g>
<g >
</g>
<g >
</g>
<g >
</g>
<g >
</g>
<g >
</g>
<g >
</g>
<g >
</g>
<g >
</g>
<g >
</g>
<g >
</g>
<g >
</g>
</g>
<g style="fill:#FFFFFF; fill-opacity:0.0; 
stroke:#FFFFFF; stroke-width:-0.000393701; stroke-opacity:1; 
stroke-linecap:round; stroke-linejoin:round;">
</g>
<g style="fill:#000000; fill-opacity:0.0; 
stroke:#000000; stroke-width:-0.000393701; stroke-opacity:1; 
stroke-linecap:round; stroke-linejoin:round;">
<g >
</g>
<g style="fill:#000000; fill-opacity:0.0; 
stroke:#000000; stroke-width:0; stroke-opacity:1; 
stroke-linecap:round; stroke-linejoin:round;">
</g>
<g style="fill:#000000; fill-opacity:1.0; 
stroke:#000000; stroke-width:0; stroke-opacity:1; 
stroke-linecap:round; stroke-linejoin:round;">
<path style="fill:#000000; fill-opacity:1.0; 
stroke:#000000; stroke-width:0; stroke-opacity:1; 
stroke-linecap:round; stroke-linejoin:round;fill-rule:evenodd;"
d="M 5052.56,8065.75
3477.76,8065.75
3477.76,8380.71
5052.56,8380.71
Z" /> 
<path style="fill:#000000; fill-opacity:1.0; 
stroke:#000000; stroke-width:0; stroke-opacity:1; 
stroke-linecap:round; stroke-linejoin:round;fill-rule:evenodd;"
d="M 5052.56,7065.75
3477.76,7065.75
3477.76,7380.71
5052.56,7380.71
Z" /> 
<path style="fill:#000000; fill-opacity:1.0; 
stroke:#000000; stroke-width:0; stroke-opacity:1; 
stroke-linecap:round; stroke-linejoin:round;fill-rule:evenodd;"
d="M 5052.56,6065.75
3477.76,6065.75
3477.76,6380.71
5052.56,6380.71
Z" /> 
<path style="fill:#000000; fill-opacity:1.0; 
stroke:#000000; stroke-width:0; stroke-opacity:1; 
stroke-linecap:round; stroke-linejoin:round;fill-rule:evenodd;"
d="M 5052.56,3065.75
3477.76,3065.75
3477.76,3380.71
5052.56,3380.71
Z" /> 
<path style="fill:#000000; fill-opacity:1.0; 
stroke:#000000; stroke-width:0; stroke-opacity:1; 
stroke-linecap:round; stroke-linejoin:round;fill-rule:evenodd;"
d="M 5052.56,4065.75
3477.76,4065.75
3477.76,4380.71
5052.56,4380.71
Z" /> 
<path style="fill:#000000; fill-opacity:1.0; 
stroke:#000000; stroke-width:0; stroke-opacity:1; 
stroke-linecap:round; stroke-linejoin:round;fill-rule:evenodd;"
d="M 5052.56,5065.75
3477.76,5065.75
3477.76,5380.71
5052.56,5380.71
Z" /> 
</g>
<g >
</g>
<g style="fill:#000000; fill-opacity:1.0; 
stroke:#000000; stroke-width:0; stroke-opacity:1; 
stroke-linecap:round; stroke-linejoin:round;">
<path style="fill:#000000; fill-opacity:1.0; 
stroke:#000000; stroke-width:0; stroke-opacity:1; 
stroke-linecap:round; stroke-linejoin:round;fill-rule:evenodd;"
d="M 9273.27,7661.02
9273.27,7385.43
9037.05,7385.43
9037.05,7661.02
Z" /> 
<path style="fill:#000000; fill-opacity:1.0; 
stroke:#000000; stroke-width:0; stroke-opacity:1; 
stroke-linecap:round; stroke-linejoin:round;fill-rule:evenodd;"
d="M 9673.27,7661.02
9673.27,7385.43
9437.05,7385.43
9437.05,7661.02
Z" /> 
</g>
<g >
</g>
<g style="fill:#000000; fill-opacity:1.0; 
stroke:#000000; stroke-width:0; stroke-opacity:1; 
stroke-linecap:round; stroke-linejoin:round;">
<path style="fill:#000000; fill-opacity:1.0; 
stroke:#000000; stroke-width:0; stroke-opacity:1; 
stroke-linecap:round; stroke-linejoin:round;fill-rule:evenodd;"
d="M 10337,7385.43
10337,7661.02
10573.3,7661.02
10573.3,7385.43
Z" /> 
<path style="fill:#000000; fill-opacity:1.0; 
stroke:#000000; stroke-width:0; stroke-opacity:1; 
stroke-linecap:round; stroke-linejoin:round;fill-rule:evenodd;"
d="M 9937.05,7385.43
9937.05,7661.02
10173.3,7661.02
10173.3,7385.43
Z" /> 
</g>
<g >
</g>
<g style="fill:#000000; fill-opacity:1.0; 
stroke:#000000; stroke-width:0; stroke-opacity:1; 
stroke-linecap:round; stroke-linejoin:round;">
<path style="fill:#000000; fill-opacity:1.0; 
stroke:#000000; stroke-width:0; stroke-opacity:1; 
stroke-linecap:round; stroke-linejoin:round;fill-rule:evenodd;"
d="M 7161.65,11680.3
7161.65,11444.1
6925.43,11444.1
6925.43,11680.3
Z" /> 
<path style="fill:#000000; fill-opacity:1.0; 
stroke:#000000; stroke-width:0; stroke-opacity:1; 
stroke-linecap:round; stroke-linejoin:round;fill-rule:evenodd;"
d="M 8834.88,11680.3
8834.88,11444.1
8598.66,11444.1
8598.66,11680.3
Z" /> 
<path style="fill:#000000; fill-opacity:1.0; 
stroke:#000000; stroke-width:0; stroke-opacity:1; 
stroke-linecap:round; stroke-linejoin:round;fill-rule:evenodd;"
d="M 7161.65,10302.4
7161.65,10066.1
6925.43,10066.1
6925.43,10302.4
Z" /> 
<path style="fill:#000000; fill-opacity:1.0; 
stroke:#000000; stroke-width:0; stroke-opacity:1; 
stroke-linecap:round; stroke-linejoin:round;fill-rule:evenodd;"
d="M 8834.88,10302.4
8834.88,10066.1
8598.66,10066.1
8598.66,10302.4
Z" /> 
</g>
<g >
</g>
<g style="fill:#000000; fill-opacity:1.0; 
stroke:#000000; stroke-width:0; stroke-opacity:1; 
stroke-linecap:round; stroke-linejoin:round;">
<path style="fill:#000000; fill-opacity:1.0; 
stroke:#000000; stroke-width:0; stroke-opacity:1; 
stroke-linecap:round; stroke-linejoin:round;fill-rule:evenodd;"
d="M 7161.65,15630.3
7161.65,15394.1
6925.43,15394.1
6925.43,15630.3
Z" /> 
<path style="fill:#000000; fill-opacity:1.0; 
stroke:#000000; stroke-width:0; stroke-opacity:1; 
stroke-linecap:round; stroke-linejoin:round;fill-rule:evenodd;"
d="M 8834.88,15630.3
8834.88,15394.1
8598.66,15394.1
8598.66,15630.3
Z" /> 
<path style="fill:#000000; fill-opacity:1.0; 
stroke:#000000; stroke-width:0; stroke-opacity:1; 
stroke-linecap:round; stroke-linejoin:round;fill-rule:evenodd;"
d="M 7161.65,14252.4
7161.65,14016.1
6925.43,14016.1
6925.43,14252.4
Z" /> 
<path style="fill:#000000; fill-opacity:1.0; 
stroke:#000000; stroke-width:0; stroke-opacity:1; 
stroke-linecap:round; stroke-linejoin:round;fill-rule:evenodd;"
d="M 8834.88,14252.4
8834.88,14016.1
8598.66,14016.1
8598.66,14252.4
Z" /> 
</g>
<g >
</g>
<g style="fill:#000000; fill-opacity:1.0; 
stroke:#000000; stroke-width:0; stroke-opacity:1; 
stroke-linecap:round; stroke-linejoin:round;">
<path style="fill:#000000; fill-opacity:1.0; 
stroke:#000000; stroke-width:0; stroke-opacity:1; 
stroke-linecap:round; stroke-linejoin:round;fill-rule:evenodd;"
d="M 11793,1305.12
11517.4,1305.12
11517.4,1541.34
11793,1541.34
Z" /> 
<path style="fill:#000000; fill-opacity:1.0; 
stroke:#000000; stroke-width:0; stroke-opacity:1; 
stroke-linecap:round; stroke-linejoin:round;fill-rule:evenodd;"
d="M 11793,905.118
11517.4,905.118
11517.4,1141.34
11793,1141.34
Z" /> 
</g>
<g >
</g>
<g style="fill:#000000; fill-opacity:1.0; 
stroke:#000000; stroke-width:0; stroke-opacity:1; 
stroke-linecap:round; stroke-linejoin:round;">
<path style="fill:#000000; fill-opacity:1.0; 
stroke:#000000; stroke-width:0; stroke-opacity:1; 
stroke-linecap:round; stroke-linejoin:round;fill-rule:evenodd;"
d="M 8942.36,1141.34
9217.95,1141.34
9217.95,905.118
8942.36,905.118
Z" /> 
<path style="fill:#000000; fill-opacity:1.0; 
stroke:#000000; stroke-width:0; stroke-opacity:1; 
stroke-linecap:round; stroke-linejoin:round;fill-rule:evenodd;"
d="M 8942.36,1541.34
9217.95,1541.34
9217.95,1305.12
8942.36,1305.12
Z" /> 
</g>
<g >
</g>
<g style="fill:#000000; fill-opacity:1.0; 
stroke:#000000; stroke-width:0; stroke-opacity:1; 
stroke-linecap:round; stroke-linejoin:round;">
<path style="fill:#000000; fill-opacity:1.0; 
stroke:#000000; stroke-width:0; stroke-opacity:1; 
stroke-linecap:round; stroke-linejoin:round;fill-rule:evenodd;"
d="M 9828.98,1248.62
9529.76,1248.62
9529.76,1547.83
9828.98,1547.83
Z" /> 
<path style="fill:#000000; fill-opacity:1.0; 
stroke:#000000; stroke-width:0; stroke-opacity:1; 
stroke-linecap:round; stroke-linejoin:round;fill-rule:evenodd;"
d="M 10431.3,1925.79
10730.6,1925.79
10730.6,1626.57
10431.3,1626.57
Z" /> 
<path style="fill:#000000; fill-opacity:1.0; 
stroke:#000000; stroke-width:0; stroke-opacity:1; 
stroke-linecap:round; stroke-linejoin:round;fill-rule:evenodd;"
d="M 10431.3,1169.88
10730.6,1169.88
10730.6,870.669
10431.3,870.669
Z" /> 
</g>
<g >
</g>
<g style="fill:#000000; fill-opacity:1.0; 
stroke:#000000; stroke-width:0; stroke-opacity:1; 
stroke-linecap:round; stroke-linejoin:round;">
<path style="fill:#000000; fill-opacity:1.0; 
stroke:#000000; stroke-width:0; stroke-opacity:1; 
stroke-linecap:round; stroke-linejoin:round;fill-rule:evenodd;"
d="M 7762.05,1083.27
7762.05,1713.19
7998.27,1713.19
7998.27,1083.27
Z" /> 
<path style="fill:#000000; fill-opacity:1.0; 
stroke:#000000; stroke-width:0; stroke-opacity:1; 
stroke-linecap:round; stroke-linejoin:round;fill-rule:evenodd;"
d="M 8273.86,1083.27
8273.86,1713.19
8667.56,1713.19
8667.56,1083.27
Z" /> 
<path style="fill:#000000; fill-opacity:1.0; 
stroke:#000000; stroke-width:0; stroke-opacity:1; 
stroke-linecap:round; stroke-linejoin:round;fill-rule:evenodd;"
d="M 7092.76,1083.27
7092.76,1713.19
7486.46,1713.19
7486.46,1083.27
Z" /> 
</g>
<g >
</g>
<g style="fill:#000000; fill-opacity:1.0; 
stroke:#000000; stroke-width:0; stroke-opacity:1; 
stroke-linecap:round; stroke-linejoin:round;">
<path style="fill:#000000; fill-opacity:1.0; 
stroke:#000000; stroke-width:0; stroke-opacity:1; 
stroke-linecap:round; stroke-linejoin:round;fill-rule:evenodd;"
d="M 12748.3,7636.02
12748.3,7360.43
12512,7360.43
12512,7636.02
Z" /> 
<path style="fill:#000000; fill-opacity:1.0; 
stroke:#000000; stroke-width:0; stroke-opacity:1; 
stroke-linecap:round; stroke-linejoin:round;fill-rule:evenodd;"
d="M 13148.3,7636.02
13148.3,7360.43
12912,7360.43
12912,7636.02
Z" /> 
</g>
<g >
</g>
<g style="fill:#000000; fill-opacity:1.0; 
stroke:#000000; stroke-width:0; stroke-opacity:1; 
stroke-linecap:round; stroke-linejoin:round;">
<path style="fill:#000000; fill-opacity:1.0; 
stroke:#000000; stroke-width:0; stroke-opacity:1; 
stroke-linecap:round; stroke-linejoin:round;fill-rule:evenodd;"
d="M 3704.96,26542.7
3704.96,24353.7
2681.34,24353.7
2681.34,26542.7
Z" /> 
<path style="fill:#000000; fill-opacity:1.0; 
stroke:#000000; stroke-width:0; stroke-opacity:1; 
stroke-linecap:round; stroke-linejoin:round;fill-rule:evenodd;"
d="M 9521.89,26542.7
9521.89,24353.7
6238.42,24353.7
6238.42,26542.7
Z" /> 
<path style="fill:#000000; fill-opacity:1.0; 
stroke:#000000; stroke-width:0; stroke-opacity:1; 
stroke-linecap:round; stroke-linejoin:round;fill-rule:evenodd;"
d="M 13079,26542.7
13079,24353.7
12055.4,24353.7
12055.4,26542.7
Z" /> 
</g>
<g >
</g>
<g style="fill:#000000; fill-opacity:1.0; 
stroke:#000000; stroke-width:0; stroke-opacity:1; 
stroke-linecap:round; stroke-linejoin:round;">
<path style="fill:#000000; fill-opacity:1.0; 
stroke:#000000; stroke-width:0; stroke-opacity:1; 
stroke-linecap:round; stroke-linejoin:round;fill-rule:evenodd;"
d="M 14981.7,2810.73
14981.7,3435.73
15178.6,3435.73
15178.6,2810.73
Z" /> 
<path style="fill:#000000; fill-opacity:1.0; 
stroke:#000000; stroke-width:0; stroke-opacity:1; 
stroke-linecap:round; stroke-linejoin:round;fill-rule:evenodd;"
d="M 14981.7,6410.73
14981.7,7035.73
15178.6,7035.73
15178.6,6410.73
Z" /> 
<path style="fill:#000000; fill-opacity:1.0; 
stroke:#000000; stroke-width:0; stroke-opacity:1; 
stroke-linecap:round; stroke-linejoin:round;fill-rule:evenodd;"
d="M 14481.7,2810.73
14481.7,3435.73
14678.6,3435.73
14678.6,2810.73
Z" /> 
<path style="fill:#000000; fill-opacity:1.0; 
stroke:#000000; stroke-width:0; stroke-opacity:1; 
stroke-linecap:round; stroke-linejoin:round;fill-rule:evenodd;"
d="M 14481.7,6410.73
14481.7,7035.73
14678.6,7035.73
14678.6,6410.73
Z" /> 
<path style="fill:#000000; fill-opacity:1.0; 
stroke:#000000; stroke-width:0; stroke-opacity:1; 
stroke-linecap:round; stroke-linejoin:round;fill-rule:evenodd;"
d="M 13981.7,2810.73
13981.7,3435.73
14178.6,3435.73
14178.6,2810.73
Z" /> 
<path style="fill:#000000; fill-opacity:1.0; 
stroke:#000000; stroke-width:0; stroke-opacity:1; 
stroke-linecap:round; stroke-linejoin:round;fill-rule:evenodd;"
d="M 13981.7,6410.73
13981.7,7035.73
14178.6,7035.73
14178.6,6410.73
Z" /> 
<path style="fill:#000000; fill-opacity:1.0; 
stroke:#000000; stroke-width:0; stroke-opacity:1; 
stroke-linecap:round; stroke-linejoin:round;fill-rule:evenodd;"
d="M 13481.7,2810.73
13481.7,3435.73
13678.6,3435.73
13678.6,2810.73
Z" /> 
<path style="fill:#000000; fill-opacity:1.0; 
stroke:#000000; stroke-width:0; stroke-opacity:1; 
stroke-linecap:round; stroke-linejoin:round;fill-rule:evenodd;"
d="M 13481.7,6410.73
13481.7,7035.73
13678.6,7035.73
13678.6,6410.73
Z" /> 
<path style="fill:#000000; fill-opacity:1.0; 
stroke:#000000; stroke-width:0; stroke-opacity:1; 
stroke-linecap:round; stroke-linejoin:round;fill-rule:evenodd;"
d="M 12981.7,2810.73
12981.7,3435.73
13178.6,3435.73
13178.6,2810.73
Z" /> 
<path style="fill:#000000; fill-opacity:1.0; 
stroke:#000000; stroke-width:0; stroke-opacity:1; 
stroke-linecap:round; stroke-linejoin:round;fill-rule:evenodd;"
d="M 12981.7,6410.73
12981.7,7035.73
13178.6,7035.73
13178.6,6410.73
Z" /> 
<path style="fill:#000000; fill-opacity:1.0; 
stroke:#000000; stroke-width:0; stroke-opacity:1; 
stroke-linecap:round; stroke-linejoin:round;fill-rule:evenodd;"
d="M 12481.7,2810.73
12481.7,3435.73
12678.6,3435.73
12678.6,2810.73
Z" /> 
<path style="fill:#000000; fill-opacity:1.0; 
stroke:#000000; stroke-width:0; stroke-opacity:1; 
stroke-linecap:round; stroke-linejoin:round;fill-rule:evenodd;"
d="M 12481.7,6410.73
12481.7,7035.73
12678.6,7035.73
12678.6,6410.73
Z" /> 
<path style="fill:#000000; fill-opacity:1.0; 
stroke:#000000; stroke-width:0; stroke-opacity:1; 
stroke-linecap:round; stroke-linejoin:round;fill-rule:evenodd;"
d="M 11981.7,2810.73
11981.7,3435.73
12178.6,3435.73
12178.6,2810.73
Z" /> 
<path style="fill:#000000; fill-opacity:1.0; 
stroke:#000000; stroke-width:0; stroke-opacity:1; 
stroke-linecap:round; stroke-linejoin:round;fill-rule:evenodd;"
d="M 11981.7,6410.73
11981.7,7035.73
12178.6,7035.73
12178.6,6410.73
Z" /> 
<path style="fill:#000000; fill-opacity:1.0; 
stroke:#000000; stroke-width:0; stroke-opacity:1; 
stroke-linecap:round; stroke-linejoin:round;fill-rule:evenodd;"
d="M 11481.7,2810.73
11481.7,3435.73
11678.6,3435.73
11678.6,2810.73
Z" /> 
<path style="fill:#000000; fill-opacity:1.0; 
stroke:#000000; stroke-width:0; stroke-opacity:1; 
stroke-linecap:round; stroke-linejoin:round;fill-rule:evenodd;"
d="M 11481.7,6410.73
11481.7,7035.73
11678.6,7035.73
11678.6,6410.73
Z" /> 
<path style="fill:#000000; fill-opacity:1.0; 
stroke:#000000; stroke-width:0; stroke-opacity:1; 
stroke-linecap:round; stroke-linejoin:round;fill-rule:evenodd;"
d="M 10981.7,2810.73
10981.7,3435.73
11178.6,3435.73
11178.6,2810.73
Z" /> 
<path style="fill:#000000; fill-opacity:1.0; 
stroke:#000000; stroke-width:0; stroke-opacity:1; 
stroke-linecap:round; stroke-linejoin:round;fill-rule:evenodd;"
d="M 10981.7,6410.73
10981.7,7035.73
11178.6,7035.73
11178.6,6410.73
Z" /> 
<path style="fill:#000000; fill-opacity:1.0; 
stroke:#000000; stroke-width:0; stroke-opacity:1; 
stroke-linecap:round; stroke-linejoin:round;fill-rule:evenodd;"
d="M 10481.7,2810.73
10481.7,3435.73
10678.6,3435.73
10678.6,2810.73
Z" /> 
<path style="fill:#000000; fill-opacity:1.0; 
stroke:#000000; stroke-width:0; stroke-opacity:1; 
stroke-linecap:round; stroke-linejoin:round;fill-rule:evenodd;"
d="M 10481.7,6410.73
10481.7,7035.73
10678.6,7035.73
10678.6,6410.73
Z" /> 
<path style="fill:#000000; fill-opacity:1.0; 
stroke:#000000; stroke-width:0; stroke-opacity:1; 
stroke-linecap:round; stroke-linejoin:round;fill-rule:evenodd;"
d="M 9981.73,2810.73
9981.73,3435.73
10178.6,3435.73
10178.6,2810.73
Z" /> 
<path style="fill:#000000; fill-opacity:1.0; 
stroke:#000000; stroke-width:0; stroke-opacity:1; 
stroke-linecap:round; stroke-linejoin:round;fill-rule:evenodd;"
d="M 9981.73,6410.73
9981.73,7035.73
10178.6,7035.73
10178.6,6410.73
Z" /> 
<path style="fill:#000000; fill-opacity:1.0; 
stroke:#000000; stroke-width:0; stroke-opacity:1; 
stroke-linecap:round; stroke-linejoin:round;fill-rule:evenodd;"
d="M 9481.73,2810.73
9481.73,3435.73
9678.58,3435.73
9678.58,2810.73
Z" /> 
<path style="fill:#000000; fill-opacity:1.0; 
stroke:#000000; stroke-width:0; stroke-opacity:1; 
stroke-linecap:round; stroke-linejoin:round;fill-rule:evenodd;"
d="M 9481.73,6410.73
9481.73,7035.73
9678.58,7035.73
9678.58,6410.73
Z" /> 
<path style="fill:#000000; fill-opacity:1.0; 
stroke:#000000; stroke-width:0; stroke-opacity:1; 
stroke-linecap:round; stroke-linejoin:round;fill-rule:evenodd;"
d="M 8981.73,2810.73
8981.73,3435.73
9178.58,3435.73
9178.58,2810.73
Z" /> 
<path style="fill:#000000; fill-opacity:1.0; 
stroke:#000000; stroke-width:0; stroke-opacity:1; 
stroke-linecap:round; stroke-linejoin:round;fill-rule:evenodd;"
d="M 8981.73,6410.73
8981.73,7035.73
9178.58,7035.73
9178.58,6410.73
Z" /> 
<path style="fill:#000000; fill-opacity:1.0; 
stroke:#000000; stroke-width:0; stroke-opacity:1; 
stroke-linecap:round; stroke-linejoin:round;fill-rule:evenodd;"
d="M 8481.73,2810.73
8481.73,3435.73
8678.58,3435.73
8678.58,2810.73
Z" /> 
<path style="fill:#000000; fill-opacity:1.0; 
stroke:#000000; stroke-width:0; stroke-opacity:1; 
stroke-linecap:round; stroke-linejoin:round;fill-rule:evenodd;"
d="M 8481.73,6410.73
8481.73,7035.73
8678.58,7035.73
8678.58,6410.73
Z" /> 
</g>
<g >
</g>
<g >
</g>
<g style="fill:#000000; fill-opacity:1.0; 
stroke:#000000; stroke-width:0; stroke-opacity:1; 
stroke-linecap:round; stroke-linejoin:round;">
</g>
<g style="fill:#000000; fill-opacity:1.0; 
stroke:#000000; stroke-width:640; stroke-opacity:1; 
stroke-linecap:round; stroke-linejoin:round;">
</g>
<g style="fill:#000000; fill-opacity:0.0; 
stroke:#000000; stroke-width:640; stroke-opacity:1; 
stroke-linecap:round; stroke-linejoin:round;">
<path d="M7880 25448
L7880 21323
" />
</g>
<g style="fill:#000000; fill-opacity:0.0; 
stroke:#000000; stroke-width:200; stroke-opacity:1; 
stroke-linecap:round; stroke-linejoin:round;">
<path d="M13080 7448
L13030 7498
" />
<path d="M13080 6723
L13080 7448
" />
<path d="M13080 6723
L13080 5698
" />
<path d="M12080 4698
L12080 3123
" />
<path d="M13080 5698
L12080 4698
" />
<path d="M12080 3123
L12080 2673
" />
<path d="M12080 2673
L11805 2398
" />
<path d="M10580 1776
L10833 1776
" />
<path d="M11455 2398
L11805 2398
" />
<path d="M10833 1776
L11455 2398
" />
</g>
<g style="fill:#000000; fill-opacity:0.0; 
stroke:#000000; stroke-width:240; stroke-opacity:1; 
stroke-linecap:round; stroke-linejoin:round;">
<path d="M7289 1013
L7289 1398
" />
<path d="M7521 781
L7289 1013
" />
<path d="M9013 781
L7521 781
" />
<path d="M9080 848
L9013 781
" />
<path d="M9080 1023
L9080 848
" />
<path d="M9105 1398
L9080 1423
" />
<path d="M9679 1398
L9105 1398
" />
<path d="M10583 1023
L10580 1020
" />
<path d="M11655 1023
L10583 1023
" />
</g>
<g style="fill:#000000; fill-opacity:0.0; 
stroke:#000000; stroke-width:200; stroke-opacity:1; 
stroke-linecap:round; stroke-linejoin:round;">
<path d="M14580 2610
L14017 2048
" />
<path d="M14580 3123
L14580 2610
" />
<path d="M14017 2048
L12055 2048
" />
<path d="M11655 1648
L11655 1423
" />
<path d="M12055 2048
L11655 1648
" />
<path d="M12580 7448
L12630 7498
" />
<path d="M12580 6723
L12580 7448
" />
</g>
<g style="fill:#000000; fill-opacity:0.0; 
stroke:#000000; stroke-width:240; stroke-opacity:1; 
stroke-linecap:round; stroke-linejoin:round;">
<path d="M12630 25385
L12567 25448
" />
<path d="M12630 7498
L12630 25385
" />
</g>
<g style="fill:#000000; fill-opacity:0.0; 
stroke:#000000; stroke-width:200; stroke-opacity:1; 
stroke-linecap:round; stroke-linejoin:round;">
<path d="M8470 2057
L8470 1398
" />
<path d="M7905 2623
L8470 2057
" />
<path d="M7905 3573
L7905 2623
" />
<path d="M10780 4173
L8505 4173
" />
<path d="M8505 4173
L7905 3573
" />
<path d="M12580 5973
L10780 4173
" />
<path d="M12580 6723
L12580 5973
" />
</g>
<g style="fill:#000000; fill-opacity:0.0; 
stroke:#000000; stroke-width:320; stroke-opacity:1; 
stroke-linecap:round; stroke-linejoin:round;">
<path d="M12567 25448
L12567 28161
" />
<path d="M3193 28161
L3193 25448
" />
<path d="M5280 30248
L3193 28161
" />
<path d="M10480 30248
L5280 30248
" />
<path d="M12567 28161
L10480 30248
" />
</g>
<g style="fill:#000000; fill-opacity:0.0; 
stroke:#000000; stroke-width:240; stroke-opacity:1; 
stroke-linecap:round; stroke-linejoin:round;">
<path d="M8716 15512
L7043 15512
" />
</g>
<g style="fill:#000000; fill-opacity:0.0; 
stroke:#000000; stroke-width:200; stroke-opacity:1; 
stroke-linecap:round; stroke-linejoin:round;">
<path d="M9580 7498
L9555 7523
" />
<path d="M9580 6723
L9580 7498
" />
</g>
<g style="fill:#000000; fill-opacity:0.0; 
stroke:#000000; stroke-width:240; stroke-opacity:1; 
stroke-linecap:round; stroke-linejoin:round;">
<path d="M9555 7798
L9555 7523
" />
<path d="M6330 8523
L8830 8523
" />
<path d="M5105 9748
L6330 8523
" />
<path d="M8830 8523
L9555 7798
" />
<path d="M5105 14273
L5105 9748
" />
<path d="M6344 15512
L5105 14273
" />
<path d="M7043 15512
L6344 15512
" />
<path d="M8716 14134
L7043 14134
" />
</g>
<g style="fill:#000000; fill-opacity:0.0; 
stroke:#000000; stroke-width:200; stroke-opacity:1; 
stroke-linecap:round; stroke-linejoin:round;">
<path d="M8716 14134
L9269 14134
" />
<path d="M9269 14134
L10130 13273
" />
<path d="M8441 10184
L8405 10148
" />
</g>
<g style="fill:#000000; fill-opacity:0.0; 
stroke:#000000; stroke-width:240; stroke-opacity:1; 
stroke-linecap:round; stroke-linejoin:round;">
<path d="M8716 10184
L8441 10184
" />
<path d="M8441 10184
L7043 10184
" />
</g>
<g style="fill:#000000; fill-opacity:0.0; 
stroke:#000000; stroke-width:200; stroke-opacity:1; 
stroke-linecap:round; stroke-linejoin:round;">
<path d="M8716 10184
L10130 10184
" />
<path d="M10130 13273
L10130 10184
" />
<path d="M10130 10184
L12080 8234
" />
<path d="M12080 8234
L12080 6723
" />
</g>
<g style="fill:#000000; fill-opacity:0.0; 
stroke:#000000; stroke-width:240; stroke-opacity:1; 
stroke-linecap:round; stroke-linejoin:round;">
<path d="M8716 11562
L7043 11562
" />
</g>
<g style="fill:#000000; fill-opacity:0.0; 
stroke:#000000; stroke-width:200; stroke-opacity:1; 
stroke-linecap:round; stroke-linejoin:round;">
<path d="M10080 7498
L10055 7523
" />
<path d="M10080 6723
L10080 7498
" />
</g>
<g style="fill:#000000; fill-opacity:0.0; 
stroke:#000000; stroke-width:240; stroke-opacity:1; 
stroke-linecap:round; stroke-linejoin:round;">
<path d="M6569 11562
L7043 11562
" />
<path d="M5730 10998
L6294 11562
" />
<path d="M5730 9748
L5730 10998
" />
<path d="M6455 9023
L5730 9748
" />
<path d="M6294 11562
L6569 11562
" />
<path d="M9080 9023
L6455 9023
" />
<path d="M10055 8048
L9080 9023
" />
<path d="M10055 7523
L10055 8048
" />
</g>
<g style="fill:#000000; fill-opacity:0.0; 
stroke:#000000; stroke-width:200; stroke-opacity:1; 
stroke-linecap:round; stroke-linejoin:round;">
<path d="M9080 6723
L9080 5698
" />
<path d="M7605 4223
L4265 4223
" />
<path d="M9080 5698
L7605 4223
" />
<path d="M7305 5223
L4265 5223
" />
<path d="M8580 6723
L8580 6073
" />
<path d="M7730 5223
L7305 5223
" />
<path d="M8580 6073
L7730 5223
" />
</g>
<g >
</g>
<g style="fill:#000000; fill-opacity:0.0; 
stroke:#000000; stroke-width:200; stroke-opacity:1; 
stroke-linecap:round; stroke-linejoin:round;">
<g >
</g>
<g style="fill:#000000; fill-opacity:1.0; 
stroke:#000000; stroke-width:100; stroke-opacity:1; 
stroke-linecap:round; stroke-linejoin:round;">
<path style="fill:#000000; fill-opacity:1.0; 
stroke:#000000; stroke-width:100; stroke-opacity:1; 
stroke-linecap:round; stroke-linejoin:round;fill-rule:evenodd;"
d="M 5192.12,5589.58
5148.69,5612.8
5101.57,5627.09
5052.56,5631.92
3715,5631.92
3715,6814.54
5052.56,6814.54
5101.57,6819.37
5148.69,6833.66
5192.12,6856.88
5230.19,6888.12
5261.43,6926.18
5284.65,6969.61
5298.94,7016.74
5303.77,7065.75
5303.77,7380.71
5298.94,7429.72
5284.65,7476.84
5261.43,7520.27
5230.19,7558.34
5192.12,7589.58
5148.69,7612.8
5101.57,7627.09
5052.56,7631.92
3715,7631.92
3715,7814.54
5052.56,7814.54
5101.57,7819.37
5148.69,7833.66
5192.12,7856.88
5230.19,7888.12
5261.43,7926.18
5284.65,7969.61
5298.94,8016.74
5303.77,8065.75
5303.77,8380.71
5298.94,8429.72
5284.65,8476.84
5261.43,8520.27
5230.19,8558.34
5192.12,8589.58
5148.69,8612.8
5101.57,8627.09
5052.56,8631.92
3715,8631.92
3715,8935.46
3716.26,8948.23
3711.24,8999.17
3696.38,9048.15
3672.25,9093.29
3639.78,9132.85
3600.22,9165.32
3555.08,9189.45
3506.1,9204.31
3467.92,9208.07
3455.16,9209.33
3442.39,9208.07
289.719,9208.07
265.28,31838.4
15495.5,31838.4
15515,7298.23
12990.6,7298.23
12994.6,7311.42
12999.5,7360.43
12999.5,7473.15
13000.2,7480.05
13000.2,24102.5
13079,24102.5
13128,24107.4
13175.1,24121.7
13218.5,24144.9
13256.6,24176.1
13287.8,24214.2
13311.1,24257.6
13325.4,24304.7
13330.2,24353.7
13330.2,26542.7
13325.4,26591.7
13311.1,26638.9
13287.8,26682.3
13256.6,26720.3
13218.5,26751.6
13175.1,26774.8
13128,26789.1
13079,26793.9
12977.2,26793.9
12977.2,28141.1
12979.1,28161.2
12977.2,28181.4
12977.2,28181.4
12971.2,28241.6
12965.5,28260.4
12947.8,28318.9
12909.7,28390.1
12871.3,28436.9
12871.3,28436.9
12858.5,28452.5
12842.8,28465.4
10784.3,30523.9
10771.5,30539.5
10755.8,30552.4
10755.8,30552.4
10709,30590.8
10637.8,30628.9
10560.5,30652.3
10500.3,30658.2
10500.3,30658.2
10480.2,30660.2
10460,30658.2
5300.29,30658.2
5280.16,30660.2
5260.02,30658.2
5260.02,30658.2
5199.78,30652.3
5122.5,30628.9
5051.27,30590.8
4988.84,30539.5
4976,30523.9
2917.47,28465.4
2901.83,28452.5
2889,28436.9
2850.6,28390.1
2812.53,28318.9
2812.53,28318.9
2789.08,28241.6
2783.15,28181.4
2783.15,28181.4
2781.17,28161.2
2783.15,28141.1
2783.15,26793.9
2681.34,26793.9
2632.33,26789.1
2585.2,26774.8
2541.77,26751.6
2503.71,26720.3
2472.47,26682.3
2449.25,26638.9
2434.96,26591.7
2430.13,26542.7
2430.13,24353.7
2434.96,24304.7
2449.25,24257.6
2472.47,24214.2
2503.71,24176.1
2541.77,24144.9
2585.2,24121.7
2632.33,24107.4
2681.34,24102.5
3704.96,24102.5
3753.97,24107.4
3801.09,24121.7
3844.52,24144.9
3882.59,24176.1
3913.83,24214.2
3932.04,24248.2
4094.92,24248.2
4208.07,23931.4
4209.76,23927.3
4359.76,23602.3
4361.74,23598.4
4561.74,23248.4
4565.16,23243.2
4790.16,22943.2
4793.3,22939.4
5068.3,22639.4
5071.52,22636.2
5346.52,22386.2
5350.16,22383.2
5650.16,22158.2
5654.43,22155.4
5904.43,22005.4
5907.8,22003.5
6307.8,21803.5
6311.59,21801.8
6686.59,21651.8
6693.03,21649.7
7093.03,21549.7
7098.55,21548.7
7473.55,21498.7
7477.04,21498.3
7877.04,21473.3
7883.48,21473.3
8258.48,21498.3
8261.77,21498.7
8636.77,21548.7
8640.63,21549.3
8990.63,21624.3
8996.97,21626.1
9346.97,21751.1
9351.3,21752.9
9726.3,21927.9
9731.36,21930.6
10056.4,22130.6
10059.2,22132.5
10409.2,22382.5
10413.8,22386.2
10688.8,22636.2
10692.2,22639.6
10942.2,22914.6
10945.2,22918.2
11170.2,23218.2
11172.7,23222
11372.7,23547
11375.5,23552.1
11550.5,23927.1
11552.2,23931.4
11665.4,24248.2
11828.3,24248.2
11846.5,24214.2
11877.7,24176.1
11915.8,24144.9
11959.2,24121.7
12006.3,24107.4
12055.4,24102.5
12260.2,24102.5
12260.2,8549.23
10480.2,10329.2
10480.2,13256
10481.9,13273.2
10480.2,13290.4
10480.2,13290.4
10475.1,13341.8
10455.1,13407.8
10422.6,13468.6
10378.8,13521.9
10365.5,13532.9
9528.78,14369.6
9517.82,14382.9
9464.52,14426.7
9403.72,14459.2
9366.47,14470.5
9337.75,14479.2
9331.69,14479.8
9286.33,14484.3
9286.32,14484.3
9269.13,14485.9
9251.94,14484.3
8931.39,14484.3
8931.02,14484.4
8883.89,14498.7
8834.88,14503.6
8741.85,14503.6
8734.95,14504.3
7025.37,14504.3
7018.46,14503.6
6925.43,14503.6
6876.42,14498.7
6829.3,14484.4
6785.87,14461.2
6747.8,14430
6716.56,14391.9
6693.35,14348.5
6679.05,14301.4
6674.22,14252.4
6674.22,14159.3
6671.75,14134.3
6674.22,14109.2
6674.22,14016.1
6679.05,13967.1
6693.35,13920
6716.56,13876.6
6747.8,13838.5
6785.87,13807.3
6829.3,13784.1
6876.42,13769.8
6925.43,13764.9
7018.46,13764.9
7025.37,13764.3
8734.95,13764.3
8741.85,13764.9
8834.88,13764.9
8883.89,13769.8
8931.02,13784.1
8931.39,13784.3
9124.16,13784.3
9780.16,13128.3
9780.16,10534.3
8931.39,10534.3
8931.02,10534.4
8883.89,10548.7
8834.88,10553.6
8741.85,10553.6
8734.95,10554.3
7025.37,10554.3
7018.46,10553.6
6925.43,10553.6
6876.42,10548.7
6829.3,10534.4
6785.87,10511.2
6747.8,10480
6716.56,10441.9
6693.35,10398.5
6679.05,10351.4
6674.22,10302.4
6674.22,10209.3
6671.75,10184.3
6674.22,10159.2
6674.22,10066.1
6679.05,10017.1
6693.35,9970.01
6716.56,9926.58
6747.8,9888.51
6785.87,9857.27
6829.3,9834.05
6876.42,9819.76
6925.43,9814.93
7018.46,9814.93
7025.37,9814.25
8300.42,9814.25
8336.54,9803.29
8405.16,9796.54
8473.77,9803.29
8509.9,9814.25
8734.95,9814.25
8741.85,9814.93
8834.88,9814.93
8883.89,9819.76
8931.02,9834.05
8931.39,9834.25
9985.18,9834.25
11730.2,8089.28
11730.2,7298.23
10430.2,7298.23
10430.2,7481.04
10431.9,7498.23
10425.2,7566.19
10425.2,8030.05
10426.9,8048.23
10419.8,8120.76
10398.6,8190.51
10364.3,8254.78
10348.1,8274.45
10318.1,8311.12
10303.9,8322.71
9354.64,9272.01
9343.05,9286.12
9328.94,9297.71
9328.93,9297.71
9286.71,9332.36
9222.44,9366.72
9152.69,9387.87
9098.33,9393.23
9098.33,9393.23
9080.16,9395.02
9061.99,9393.23
6608.42,9393.23
6100.16,9901.49
6100.16,10845
6447.39,11192.2
8734.95,11192.2
8741.85,11192.9
8834.88,11192.9
8883.89,11197.7
8931.02,11212
8974.45,11235.2
9012.51,11266.5
9043.75,11304.5
9066.97,11348
9081.26,11395.1
9086.09,11444.1
9086.09,11537.1
9088.56,11562.2
9086.09,11587.3
9086.09,11680.3
9081.26,11729.3
9066.97,11776.4
9043.75,11819.9
9012.51,11857.9
8974.45,11889.2
8931.02,11912.4
8883.89,11926.7
8834.88,11931.5
8741.85,11931.5
8734.95,11932.2
6312.31,11932.2
6294.13,11934
6275.96,11932.2
6275.96,11932.2
6221.6,11926.9
6151.86,11905.7
6087.58,11871.3
6031.24,11825.1
6019.65,11811
5481.38,11272.7
5475.16,11267.6
5475.16,14120
6497.39,15142.2
8734.95,15142.2
8741.85,15142.9
8834.88,15142.9
8883.89,15147.7
8931.02,15162
8974.45,15185.2
9012.51,15216.5
9043.75,15254.5
9066.97,15298
9081.26,15345.1
9086.09,15394.1
9086.09,15487.1
9088.56,15512.2
9086.09,15537.3
9086.09,15630.3
9081.26,15679.3
9066.97,15726.4
9043.75,15769.9
9012.51,15807.9
8974.45,15839.2
8931.02,15862.4
8883.89,15876.7
8834.88,15881.5
8741.85,15881.5
8734.95,15882.2
6362.31,15882.2
6344.13,15884
6325.96,15882.2
6325.96,15882.2
6271.6,15876.9
6201.86,15855.7
6137.58,15821.3
6081.24,15775.1
6069.65,15761
4856.38,14547.7
4842.26,14536.1
4830.68,14522
4796.02,14479.8
4776.57,14443.4
4761.67,14415.5
4740.51,14345.8
4735.16,14291.4
4735.16,14291.4
4733.37,14273.2
4735.16,14255.1
4735.16,9766.4
4733.37,9748.23
4735.16,9730.06
4735.16,9730.05
4740.51,9675.7
4761.67,9605.95
4796.02,9541.67
4842.26,9485.33
4856.38,9473.75
6055.67,8274.45
6067.26,8260.33
6123.6,8214.1
6187.88,8179.74
6257.62,8158.58
6311.98,8153.23
6311.99,8153.23
6330.16,8151.44
6348.33,8153.23
8676.9,8153.23
9185.16,7644.97
9185.16,7505.05
9185.84,7498.14
9185.84,7385.43
9190.66,7336.42
9202.25,7298.23
8180.16,7298.23
8170.4,7297.27
8161.02,7294.42
8152.38,7289.8
8144.8,7283.58
8138.58,7276.01
8133.96,7267.36
8131.12,7257.98
8130.16,7248.23
8130.16,6118.2
7585.18,5573.23
5212.05,5573.23
Z" /> 
</g>
</g>
</g>
<g style="fill:#FFFFFF; fill-opacity:1.0; 
stroke:#FFFFFF; stroke-width:100; stroke-opacity:1; 
stroke-linecap:round; stroke-linejoin:round;">
</g>
<g style="fill:#000000; fill-opacity:1.0; 
stroke:#000000; stroke-width:100; stroke-opacity:1; 
stroke-linecap:round; stroke-linejoin:round;">
</g> 
</svg>
